<mxfile host="drawio-plugin" modified="2022-10-23T21:24:27.064Z" agent="5.0 (Macintosh; Intel Mac OS X 11_6_8) AppleWebKit/537.36 (KHTML, like Gecko) Chrome/87.0.4280.141 Safari/537.36" version="15.5.4" etag="-fu8TxHjEkhoWXdG1B6v" type="embed"><diagram id="i6zb2t84MIm7l2LZgkcX" name="Page-1"><mxGraphModel dx="1011" dy="739" grid="1" gridSize="10" guides="1" tooltips="1" connect="1" arrows="1" fold="1" page="1" pageScale="1" pageWidth="850" pageHeight="1100" math="0" shadow="0"><root><mxCell id="0"/><mxCell id="1" parent="0"/><mxCell id="2" value="Software&lt;br&gt;Asset" style="rounded=0;whiteSpace=wrap;html=1;fillColor=#e1d5e7;strokeColor=#9673a6;" vertex="1" parent="1"><mxGeometry x="130" y="50" width="120" height="80" as="geometry"/></mxCell><mxCell id="3" value="Software&lt;br&gt;Asset" style="rounded=0;whiteSpace=wrap;html=1;fillColor=#e1d5e7;strokeColor=#9673a6;" vertex="1" parent="1"><mxGeometry x="120" y="40" width="120" height="80" as="geometry"/></mxCell><mxCell id="4" value="" style="shape=flexArrow;endArrow=classic;html=1;rounded=0;fillColor=#f5f5f5;strokeColor=#666666;" edge="1" parent="1"><mxGeometry width="50" height="50" relative="1" as="geometry"><mxPoint x="260" y="90" as="sourcePoint"/><mxPoint x="350" y="90" as="targetPoint"/></mxGeometry></mxCell><mxCell id="5" value="Software Bill of Materials&lt;br&gt;(SBOM)" style="rounded=0;whiteSpace=wrap;html=1;fillColor=#dae8fc;strokeColor=#6c8ebf;" vertex="1" parent="1"><mxGeometry x="360" y="50" width="120" height="80" as="geometry"/></mxCell><mxCell id="6" value="analyze" style="text;html=1;strokeColor=none;fillColor=none;align=center;verticalAlign=middle;whiteSpace=wrap;rounded=0;" vertex="1" parent="1"><mxGeometry x="270" y="50" width="60" height="30" as="geometry"/></mxCell></root></mxGraphModel></diagram></mxfile>